<svg width="500" height="106" viewBox="0 0 500 106" fill="none" xmlns="http://www.w3.org/2000/svg">
<path d="M426.259 0H415.468V54.137H426.259V0Z" fill="#333333"/>
<path d="M136.69 0V54.137H181.654V43.3609H147.482L147.739 32.5848H174.46V21.8087L147.739 21.5522L147.482 10.7761H179.599V0H136.69Z" fill="#333333"/>
<path d="M0 0V11.0327H18.4995V53.8804H29.2909V11.0327L48.0473 10.7761V0H0Z" fill="#333333"/>
<path d="M382.579 0V21.8087H355.344V0H344.553V54.137H355.344V32.5848H382.579V54.137H393.371V0H382.579Z" fill="#333333"/>
<path d="M242.548 0V37.7163L212.23 0H201.438V54.137H212.23V17.9601L242.548 54.137H253.34V0H242.548Z" fill="#333333"/>
<path d="M275.18 0V54.137H297.276C313.72 54.137 324.769 43.3609 324.769 26.6836C324.769 9.49322 313.72 0 297.276 0L275.18 0ZM297.276 43.3609H286.485V10.7761H297.276C307.811 10.7761 313.72 16.4207 313.72 26.9402C313.72 37.4597 307.811 43.3609 297.276 43.3609Z" fill="#333333"/>
<path d="M103.289 36.9468L102.518 35.9205C109.455 33.3548 114.337 26.4273 114.337 18.7301C114.337 8.46718 106.115 0.256836 95.8377 0.256836H69.1162V54.1372H80.1645V35.9205H89.9281L105.601 54.1372H117.934L103.289 36.9468ZM80.1645 26.4273V10.7763H96.0946C100.463 10.7763 103.803 14.3684 103.803 18.4735C103.803 22.5787 100.206 26.1707 96.0946 26.1707L80.1645 26.4273Z" fill="#333333"/>
<path d="M500 0H489.466L474.049 22.835L458.89 0H448.099V54.137H458.89V18.4733L474.049 40.282L489.466 18.4733V54.137H500V0Z" fill="#333333"/>
<path d="M114.241 79.2783H118.081L128.323 104.752H123.97L121.666 98.6603H110.657L108.096 104.475H104L114.241 79.2783ZM120.13 94.507L116.033 84.5391L111.937 94.507H120.13Z" fill="#333333"/>
<path d="M134.979 92.0136C134.979 84.8146 139.844 79 147.013 79C151.365 79 153.925 80.6613 156.23 82.8764L153.669 86.199C151.877 84.2608 149.829 83.1533 147.269 83.1533C142.916 83.1533 139.588 87.0297 139.588 92.0136C139.588 96.9975 142.916 100.874 147.269 100.874C150.085 100.874 151.877 99.4895 153.925 97.5513L156.486 100.32C154.182 103.089 151.365 104.75 147.013 104.75C139.844 105.027 134.979 99.2126 134.979 92.0136Z" fill="#333333"/>
<path d="M163.654 92.0136C163.654 84.8146 168.519 79 175.688 79C180.04 79 182.6 80.6613 184.905 82.8764L182.344 86.199C180.552 84.2608 178.504 83.1533 175.944 83.1533C171.591 83.1533 168.263 87.0297 168.263 92.0136C168.263 96.9975 171.591 100.874 175.944 100.874C178.76 100.874 180.552 99.4895 182.6 97.5513L185.161 100.32C182.856 103.089 180.04 104.75 175.688 104.75C168.775 105.027 163.654 99.2126 163.654 92.0136Z" fill="#333333"/>
<path d="M194.378 79.2783H211.532V83.1547H198.474V89.8H210.252V93.6763H198.474V100.322H211.788V104.475H194.378V79.2783Z" fill="#333333"/>
<path d="M220.235 100.875L222.796 97.8296C225.1 100.045 227.148 101.152 230.22 101.152C232.781 101.152 234.317 99.7678 234.317 97.8296C234.317 95.8914 233.293 95.0608 228.94 93.9532C224.076 92.5688 221.259 91.1844 221.259 86.4773C221.259 82.0472 224.588 79.2783 229.196 79.2783C232.525 79.2783 235.341 80.3859 237.645 82.3241L235.341 85.6467C233.293 83.9854 231.245 83.1547 228.94 83.1547C226.636 83.1547 225.1 84.5391 225.1 86.2005C225.1 88.1386 226.124 88.9693 230.732 90.0768C235.597 91.4613 238.157 93.3995 238.157 97.5527C238.157 102.26 234.829 105.029 229.708 105.029C226.38 105.029 223.052 103.644 220.235 100.875Z" fill="#333333"/>
<path d="M246.607 100.875L249.168 97.8296C251.472 100.045 253.52 101.152 256.593 101.152C259.153 101.152 260.689 99.7678 260.689 97.8296C260.689 95.8914 259.665 95.0608 255.312 93.9532C250.448 92.5688 247.632 91.1844 247.632 86.4773C247.632 82.0472 250.96 79.2783 255.568 79.2783C258.897 79.2783 261.713 80.3859 264.017 82.3241L261.713 85.6467C259.665 83.9854 257.617 83.1547 255.312 83.1547C253.008 83.1547 251.472 84.5391 251.472 86.2005C251.472 88.1386 252.496 88.9693 257.105 90.0768C261.969 91.4613 264.529 93.3995 264.529 97.5527C264.529 102.26 261.201 105.029 256.337 105.029C252.752 105.029 249.424 103.644 246.607 100.875Z" fill="#333333"/>
<path d="M273.234 92.0136C273.234 84.8146 278.355 79 285.524 79C292.692 79 297.557 84.8146 297.557 92.0136C297.557 99.2126 292.436 105.027 285.268 105.027C278.355 105.027 273.234 99.2126 273.234 92.0136ZM293.461 92.0136C293.461 87.0297 290.132 83.1533 285.524 83.1533C280.915 83.1533 277.587 87.0297 277.587 92.0136C277.587 96.9975 280.915 100.874 285.524 100.874C290.132 100.874 293.461 96.9975 293.461 92.0136Z" fill="#333333"/>
<path d="M307.798 79.2783H318.295C323.672 79.2783 327 82.3241 327 87.308C327 91.4613 324.696 93.9532 321.367 95.0608L327.768 104.475H322.903L317.015 95.6145H311.894V104.475H307.798V79.2783ZM318.039 91.7382C320.855 91.7382 322.903 90.0768 322.903 87.5849C322.903 84.816 321.111 83.4316 318.039 83.4316H312.15V92.015H318.039V91.7382Z" fill="#333333"/>
<path d="M337.241 79.2783H341.338V104.475H337.241V79.2783Z" fill="#333333"/>
<path d="M352.603 79.2783H369.756V83.1547H356.699V89.8H368.476V93.6763H356.699V100.322H370.012V104.475H352.603V79.2783Z" fill="#333333"/>
<path d="M378.717 100.875L381.277 97.8296C383.581 100.045 385.63 101.152 388.702 101.152C391.262 101.152 392.798 99.7678 392.798 97.8296C392.798 95.8914 391.774 95.0608 387.422 93.9532C382.557 92.5688 379.741 91.1844 379.741 86.4773C379.741 82.0472 383.069 79.2783 387.678 79.2783C391.006 79.2783 393.822 80.3859 396.127 82.3241L393.822 85.6467C391.774 83.9854 389.726 83.1547 387.422 83.1547C385.117 83.1547 383.581 84.5391 383.581 86.2005C383.581 88.1386 384.605 88.9693 389.214 90.0768C394.078 91.4613 396.639 93.3995 396.639 97.5527C396.639 102.26 393.31 105.029 388.446 105.029C384.861 105.029 381.533 103.644 378.717 100.875Z" fill="#333333"/>
</svg>
